HIERARCHY
ROOT Hips
{
  OFFSET 265.287 66.7526 -254.649
  CHANNELS 6 Xposition Yposition Zposition Zrotation Xrotation Yrotation
  JOINT LeftUpLeg
  {
    OFFSET 8.64259 1.95398 -2.38835
    CHANNELS 3 Zrotation Xrotation Yrotation
    JOINT LeftLeg
    {
      OFFSET 43.7702 0 0
      CHANNELS 3 Zrotation Xrotation Yrotation
      JOINT LeftFoot
      {
        OFFSET 40.6238 0 0
        CHANNELS 3 Zrotation Xrotation Yrotation
        JOINT LeftToeBase
        {
          OFFSET 12.7242 0 0
          CHANNELS 3 Zrotation Xrotation Yrotation
          End Site
          {
            OFFSET 0 0 0
          }
        }
      }
    }
  }
  JOINT RightUpLeg
  {
    OFFSET -8.2249 1.95398 -2.59336
    CHANNELS 3 Zrotation Xrotation Yrotation
    JOINT RightLeg
    {
      OFFSET 43.5653 0 0
      CHANNELS 3 Zrotation Xrotation Yrotation
      JOINT RightFoot
      {
        OFFSET 40.6238 0 0
        CHANNELS 3 Zrotation Xrotation Yrotation
        JOINT RightToeBase
        {
          OFFSET 12.7242 0 0
          CHANNELS 3 Zrotation Xrotation Yrotation
          End Site
          {
            OFFSET 0 0 0
          }
        }
      }
    }
  }
  JOINT Spine
  {
    OFFSET 0.165834 0.87714 6.61349
    CHANNELS 3 Zrotation Xrotation Yrotation
    JOINT Spine1
    {
      OFFSET 7.38963 1.71661e-005 0
      CHANNELS 3 Zrotation Xrotation Yrotation
      JOINT Spine2
      {
        OFFSET 11.9445 1.14441e-005 0
        CHANNELS 3 Zrotation Xrotation Yrotation
        JOINT Spine3
        {
          OFFSET 14.7254 4.19617e-005 0
          CHANNELS 3 Zrotation Xrotation Yrotation
          JOINT Spine4
          {
            OFFSET 10.9679 0 0
            CHANNELS 3 Zrotation Xrotation Yrotation
            JOINT RightShoulder
            {
              OFFSET 2.46616 -1.6653 3.69651
              CHANNELS 3 Zrotation Xrotation Yrotation
              JOINT RightArm
              {
                OFFSET 13.0012 0 0
                CHANNELS 3 Zrotation Xrotation Yrotation
                JOINT RightForeArm
                {
                  OFFSET 28.7848 1.52588e-005 0
                  CHANNELS 3 Zrotation Xrotation Yrotation
                  JOINT RightHand
                  {
                    OFFSET 26.5688 1.52588e-005 0
                    CHANNELS 3 Zrotation Xrotation Yrotation
                    End Site
                    {
                      OFFSET 0 0 0
                    }
                  }
                }
              }
            }
            JOINT LeftShoulder
            {
              OFFSET 2.38034 -1.29275 -3.7523
              CHANNELS 3 Zrotation Xrotation Yrotation
              JOINT LeftArm
              {
                OFFSET 16.3182 6.10351e-005 0
                CHANNELS 3 Zrotation Xrotation Yrotation
                JOINT LeftForeArm
                {
                  OFFSET 27.0901 0 0
                  CHANNELS 3 Zrotation Xrotation Yrotation
                  JOINT LeftHand
                  {
                    OFFSET 24.5451 1.52588e-005 0
                    CHANNELS 3 Zrotation Xrotation Yrotation
                    End Site
                    {
                      OFFSET 0 0 0
                    }
                  }
                }
              }
            }
            JOINT Neck
            {
              OFFSET 5.0226 -0.0266342 0
              CHANNELS 3 Zrotation Xrotation Yrotation
              JOINT Head
              {
                OFFSET 6.69364 2.86102e-005 0
                CHANNELS 3 Zrotation Xrotation Yrotation
                End Site
                {
                  OFFSET 0 0 0
                }
              }
            }
          }
        }
      }
    }
  }
}
MOTION
Frames:	6
Frame Time:	0.0416667
13.5545 96.8261 -27.9794 -103.486 -87.1263 -102.873 -173.484 2.62181 90.6226 -14.1073 5.47935 2.03591 67.6986 3.16799 1.56531 29.0732 -0.22431 1.19713 176.478 1.95047 89.5026 -11.9958 -11.1543 -1.12911 67.9011 -4.57957 0.0608969 26.1274 0.288617 0.711476 -0.258945 6.98987 -90.2489 12.8932 -0.633397 -0.421278 1.22239 -0.651326 -0.392995 -21.313 -0.47751 -0.592165 -1.30036 -0.477499 -0.592157 102.559 -49.7568 -81.5507 30.7137 -4.91357 -7.60321 1.02739 -14.5967 -11.1155 -14.1657 -0.84413 1.77467 -80.1882 -48.94 93.2639 -29.7617 14.1963 -17.1181 3.21432 23.9145 -7.0998 4.31998 -0.00940884 -2.98122 9.73207 0.764542 2.87336 -10.3795 0.256854 -2.49459 
13.5755 96.8381 -28.0033 -104.37 -87.2672 -103.758 -173.588 2.61673 90.5684 -14.0545 5.5677 2.1229 67.6317 3.20939 1.79835 29.2933 -0.248603 0.814502 176.408 1.82458 89.465 -11.7816 -11.1213 -1.06852 67.9415 -4.56129 0.199406 25.5581 0.41387 0.396192 -0.286358 6.99267 -90.2386 12.881 -0.682919 -0.394926 1.21014 -0.699637 -0.364488 -21.3255 -0.532655 -0.581912 -1.31284 -0.532657 -0.581919 102.523 -49.8795 -81.607 30.5728 -5.13692 -7.66993 1.18971 -14.3093 -11.0914 -14.2387 -0.871815 1.97173 -80.1087 -48.8941 93.3839 -29.7226 14.1879 -17.1672 3.30448 24.131 -7.2086 4.20006 -0.00761849 -2.9259 9.93235 0.656987 2.20043 -10.4 0.245889 -1.6283 
13.5271 96.8445 -28.0109 -103.763 -87.1231 -103.104 -173.515 2.52349 90.6639 -13.8847 5.45281 2.10296 67.6083 3.14841 1.40575 29.0958 -0.268553 1.53604 176.444 1.95226 89.5239 -11.9849 -11.1639 -1.06547 67.8484 -4.48122 0.218951 25.9171 0.302737 0.820793 -0.260075 6.99298 -90.2547 12.8885 -0.638439 -0.432134 1.21762 -0.656833 -0.403627 -21.3178 -0.479055 -0.60403 -1.3051 -0.479046 -0.604036 102.565 -49.6277 -81.5391 30.7926 -4.96003 -7.64173 1.11356 -14.7084 -10.9669 -14.3042 -0.872562 1.94397 -80.1303 -49.0397 93.357 -29.6254 14.3349 -17.2784 3.11389 23.9331 -7.0346 4.4849 -0.00769465 -2.9894 9.84491 0.747626 3.01451 -10.6854 0.216278 -2.55862 
13.5219 96.8349 -28.0192 -103.255 -87.1267 -102.621 -173.486 2.62062 90.658 -14.0113 5.42248 2.06006 67.7094 3.17902 1.48465 29.0488 -0.220174 1.22018 176.469 1.94651 89.5377 -11.9302 -11.2272 -1.08874 67.9451 -4.59654 0.0459332 25.7242 0.346712 0.701707 -0.250229 6.99041 -90.2533 12.8925 -0.618211 -0.431892 1.22162 -0.636622 -0.404271 -21.3137 -0.459841 -0.597724 -1.30105 -0.459833 -0.597725 102.637 -49.699 -81.4273 30.6419 -5.03601 -7.66331 1.19462 -14.5256 -10.9869 -14.4511 -0.910105 2.1761 -80.1983 -49.1082 93.2558 -29.5125 14.427 -17.2386 3.10588 23.769 -7.15332 4.7941 0.0159 -2.6646 9.94706 0.686551 2.35936 -10.5759 0.234459 -1.52176 
13.4984 96.8433 -28.0284 -104.415 -87.086 -103.821 -173.543 2.47941 90.6213 -13.8487 5.23432 2.10405 67.5953 3.13436 1.35888 29.023 -0.194309 1.06203 176.349 1.90002 89.4409 -11.9026 -11.4644 -0.997387 67.859 -4.57509 -0.110546 25.9327 0.2853 0.932633 -0.254188 6.98816 -90.2447 12.878 -0.621987 -0.414926 1.20712 -0.639646 -0.38716 -21.3283 -0.468541 -0.582678 -1.31562 -0.468533 -0.582677 102.561 -49.6735 -81.5463 30.6683 -5.11471 -7.65507 1.30438 -14.4707 -10.9463 -15.0307 -0.9445 2.15462 -80.1951 -49.085 93.2594 -29.5383 14.4475 -17.1735 3.12284 23.8966 -7.14702 5.0728 0.0144906 -2.82955 10.1224 0.6555 2.04238 -10.714 0.24545 -1.06872 
13.4659 96.8517 -28.0384 -103.168 -87.1415 -102.609 -173.56 2.56968 90.5819 -13.9008 5.3144 2.09443 67.6422 3.16556 1.46674 29.0755 -0.220547 1.15669 176.407 1.99336 89.4788 -11.9483 -11.4077 -1.03964 67.704 -4.47041 -0.111078 26.1986 0.299509 0.56128 -0.254518 6.9897 -90.2553 12.8932 -0.627717 -0.434789 1.22232 -0.646244 -0.406744 -21.313 -0.468036 -0.603343 -1.30035 -0.468026 -0.603345 102.544 -49.5171 -81.5721 30.7874 -4.98307 -7.6309 1.21135 -14.3357 -11.0545 -15.1091 -0.937176 2.05668 -80.2169 -49.2774 93.2346 -29.6112 14.2411 -17.0712 3.22803 23.7858 -7.18682 4.90317 0.012038 -2.75662 10.234 0.618592 2.54232 -10.878 0.133124 -1.66173 
